<mxfile host="Electron" modified="2023-06-05T06:34:04.604Z" agent="Mozilla/5.0 (Windows NT 10.0; Win64; x64) AppleWebKit/537.36 (KHTML, like Gecko) draw.io/21.2.8 Chrome/112.0.5615.165 Electron/24.2.0 Safari/537.36" etag="lQBPWm1iLpqS6qlXgobt" version="21.2.8" type="device">
  <diagram name="Page-1" id="3SpYFveDROckzvCCP91e">
    <mxGraphModel dx="2583" dy="1120" grid="1" gridSize="10" guides="1" tooltips="1" connect="1" arrows="1" fold="1" page="1" pageScale="1" pageWidth="850" pageHeight="1100" math="0" shadow="0">
      <root>
        <mxCell id="0" />
        <mxCell id="1" parent="0" />
        <mxCell id="Hr1K1v3xX_q02tlTiwX0-1" value="" style="rounded=0;whiteSpace=wrap;html=1;" parent="1" vertex="1">
          <mxGeometry x="-90" y="70" width="1430" height="560" as="geometry" />
        </mxCell>
        <mxCell id="Hr1K1v3xX_q02tlTiwX0-2" value="" style="outlineConnect=0;dashed=0;verticalLabelPosition=bottom;verticalAlign=top;align=center;html=1;shape=mxgraph.aws3.sqs;fillColor=#D9A741;gradientColor=none;" parent="1" vertex="1">
          <mxGeometry x="130" y="327" width="76.5" height="90" as="geometry" />
        </mxCell>
        <mxCell id="Hr1K1v3xX_q02tlTiwX0-3" value="" style="sketch=0;points=[[0,0,0],[0.25,0,0],[0.5,0,0],[0.75,0,0],[1,0,0],[0,1,0],[0.25,1,0],[0.5,1,0],[0.75,1,0],[1,1,0],[0,0.25,0],[0,0.5,0],[0,0.75,0],[1,0.25,0],[1,0.5,0],[1,0.75,0]];outlineConnect=0;fontColor=#232F3E;gradientColor=#FF4F8B;gradientDirection=north;fillColor=#BC1356;strokeColor=#ffffff;dashed=0;verticalLabelPosition=bottom;verticalAlign=top;align=center;html=1;fontSize=12;fontStyle=0;aspect=fixed;shape=mxgraph.aws4.resourceIcon;resIcon=mxgraph.aws4.sqs;" parent="1" vertex="1">
          <mxGeometry x="320" y="333" width="78" height="78" as="geometry" />
        </mxCell>
        <mxCell id="Hr1K1v3xX_q02tlTiwX0-4" value="" style="outlineConnect=0;dashed=0;verticalLabelPosition=bottom;verticalAlign=top;align=center;html=1;shape=mxgraph.aws3.queue;fillColor=#D9A741;gradientColor=none;" parent="1" vertex="1">
          <mxGeometry x="535" y="195" width="70" height="40" as="geometry" />
        </mxCell>
        <mxCell id="Hr1K1v3xX_q02tlTiwX0-9" value="" style="outlineConnect=0;dashed=0;verticalLabelPosition=bottom;verticalAlign=top;align=center;html=1;shape=mxgraph.aws3.iam;fillColor=#759C3E;gradientColor=none;" parent="1" vertex="1">
          <mxGeometry y="160" width="40" height="70" as="geometry" />
        </mxCell>
        <mxCell id="Hr1K1v3xX_q02tlTiwX0-12" style="edgeStyle=orthogonalEdgeStyle;rounded=0;orthogonalLoop=1;jettySize=auto;html=1;exitX=0.92;exitY=0.5;exitDx=0;exitDy=0;exitPerimeter=0;strokeWidth=5;" parent="1" source="Hr1K1v3xX_q02tlTiwX0-9" target="Hr1K1v3xX_q02tlTiwX0-2" edge="1">
          <mxGeometry relative="1" as="geometry">
            <mxPoint x="177" y="359" as="sourcePoint" />
            <mxPoint x="30" y="361" as="targetPoint" />
            <Array as="points">
              <mxPoint x="90" y="195" />
              <mxPoint x="90" y="361" />
            </Array>
          </mxGeometry>
        </mxCell>
        <mxCell id="Hr1K1v3xX_q02tlTiwX0-14" style="edgeStyle=orthogonalEdgeStyle;rounded=0;orthogonalLoop=1;jettySize=auto;html=1;exitX=1;exitY=0.5;exitDx=0;exitDy=0;exitPerimeter=0;strokeWidth=5;entryX=0;entryY=0.5;entryDx=0;entryDy=0;entryPerimeter=0;" parent="1" source="Hr1K1v3xX_q02tlTiwX0-2" target="Hr1K1v3xX_q02tlTiwX0-3" edge="1">
          <mxGeometry relative="1" as="geometry">
            <mxPoint x="250" y="384" as="sourcePoint" />
            <mxPoint x="343" y="550" as="targetPoint" />
            <Array as="points">
              <mxPoint x="290" y="372" />
              <mxPoint x="290" y="372" />
            </Array>
          </mxGeometry>
        </mxCell>
        <mxCell id="Hr1K1v3xX_q02tlTiwX0-15" style="edgeStyle=orthogonalEdgeStyle;rounded=0;orthogonalLoop=1;jettySize=auto;html=1;exitX=1;exitY=0.5;exitDx=0;exitDy=0;exitPerimeter=0;strokeWidth=5;entryX=0;entryY=0.5;entryDx=0;entryDy=0;entryPerimeter=0;" parent="1" source="Hr1K1v3xX_q02tlTiwX0-3" target="Hr1K1v3xX_q02tlTiwX0-4" edge="1">
          <mxGeometry relative="1" as="geometry">
            <mxPoint x="217" y="382" as="sourcePoint" />
            <mxPoint x="330" y="382" as="targetPoint" />
            <Array as="points">
              <mxPoint x="440" y="372" />
              <mxPoint x="440" y="215" />
            </Array>
          </mxGeometry>
        </mxCell>
        <mxCell id="Hr1K1v3xX_q02tlTiwX0-17" value="&lt;font style=&quot;font-size: 16px;&quot;&gt;IAM User&lt;/font&gt;" style="text;html=1;strokeColor=none;fillColor=none;align=center;verticalAlign=middle;whiteSpace=wrap;rounded=0;" parent="1" vertex="1">
          <mxGeometry x="-15" y="230" width="70" height="20" as="geometry" />
        </mxCell>
        <mxCell id="Hr1K1v3xX_q02tlTiwX0-18" value="&lt;span style=&quot;font-size: 16px;&quot;&gt;Amazon SQS&lt;br&gt;&lt;/span&gt;" style="text;html=1;strokeColor=none;fillColor=none;align=center;verticalAlign=middle;whiteSpace=wrap;rounded=0;" parent="1" vertex="1">
          <mxGeometry x="133.25" y="430" width="70" height="20" as="geometry" />
        </mxCell>
        <mxCell id="Hr1K1v3xX_q02tlTiwX0-20" value="&lt;span style=&quot;font-size: 16px;&quot;&gt;Standard Queue&lt;br&gt;&lt;/span&gt;" style="text;html=1;strokeColor=none;fillColor=none;align=center;verticalAlign=middle;whiteSpace=wrap;rounded=0;" parent="1" vertex="1">
          <mxGeometry x="324" y="430" width="70" height="20" as="geometry" />
        </mxCell>
        <mxCell id="Hr1K1v3xX_q02tlTiwX0-23" value="&lt;span style=&quot;font-size: 16px;&quot;&gt;&lt;br&gt;&lt;/span&gt;" style="text;html=1;strokeColor=none;fillColor=none;align=center;verticalAlign=middle;whiteSpace=wrap;rounded=0;" parent="1" vertex="1">
          <mxGeometry x="792.5" y="150" width="70" height="30" as="geometry" />
        </mxCell>
        <mxCell id="Hr1K1v3xX_q02tlTiwX0-26" value="&lt;span style=&quot;font-size: 16px;&quot;&gt;&lt;font face=&quot;Courier New&quot;&gt;user.info&lt;/font&gt;&lt;br&gt;&lt;/span&gt;" style="text;html=1;strokeColor=none;fillColor=none;align=center;verticalAlign=middle;whiteSpace=wrap;rounded=0;" parent="1" vertex="1">
          <mxGeometry x="535" y="240" width="70" height="30" as="geometry" />
        </mxCell>
        <mxCell id="Hr1K1v3xX_q02tlTiwX0-31" style="edgeStyle=orthogonalEdgeStyle;rounded=0;orthogonalLoop=1;jettySize=auto;html=1;exitX=0;exitY=0.25;exitDx=0;exitDy=0;entryX=1;entryY=0.5;entryDx=0;entryDy=0;entryPerimeter=0;dashed=1;" parent="1" source="Hr1K1v3xX_q02tlTiwX0-16" target="Hr1K1v3xX_q02tlTiwX0-4" edge="1">
          <mxGeometry relative="1" as="geometry">
            <Array as="points">
              <mxPoint x="912" y="215" />
            </Array>
          </mxGeometry>
        </mxCell>
        <mxCell id="Hr1K1v3xX_q02tlTiwX0-32" value="&lt;font style=&quot;font-size: 12px;&quot;&gt;polls&lt;/font&gt;" style="edgeLabel;html=1;align=center;verticalAlign=middle;resizable=0;points=[];" parent="Hr1K1v3xX_q02tlTiwX0-31" vertex="1" connectable="0">
          <mxGeometry x="0.2206" y="2" relative="1" as="geometry">
            <mxPoint x="-22" y="-2" as="offset" />
          </mxGeometry>
        </mxCell>
        <mxCell id="Hr1K1v3xX_q02tlTiwX0-30" value="" style="group" parent="1" vertex="1" connectable="0">
          <mxGeometry x="890" y="195" width="344.59000000000015" height="235" as="geometry" />
        </mxCell>
        <mxCell id="Hr1K1v3xX_q02tlTiwX0-5" value="" style="sketch=0;aspect=fixed;pointerEvents=1;shadow=0;dashed=0;html=1;strokeColor=#006EAF;labelPosition=center;verticalLabelPosition=bottom;verticalAlign=top;align=center;fillColor=#1ba1e2;shape=mxgraph.mscae.enterprise.device;fontColor=#ffffff;" parent="Hr1K1v3xX_q02tlTiwX0-30" vertex="1">
          <mxGeometry x="3.75" y="86" width="62.5" height="32.5" as="geometry" />
        </mxCell>
        <mxCell id="Hr1K1v3xX_q02tlTiwX0-7" style="edgeStyle=orthogonalEdgeStyle;rounded=0;orthogonalLoop=1;jettySize=auto;html=1;entryX=0.97;entryY=0.5;entryDx=0;entryDy=0;entryPerimeter=0;exitX=0.087;exitY=0.437;exitDx=0;exitDy=0;exitPerimeter=0;strokeWidth=5;" parent="Hr1K1v3xX_q02tlTiwX0-30" source="Hr1K1v3xX_q02tlTiwX0-6" target="Hr1K1v3xX_q02tlTiwX0-5" edge="1">
          <mxGeometry relative="1" as="geometry">
            <mxPoint x="13.75" y="111" as="targetPoint" />
            <Array as="points">
              <mxPoint x="203.75" y="102" />
            </Array>
          </mxGeometry>
        </mxCell>
        <mxCell id="Hr1K1v3xX_q02tlTiwX0-6" value="" style="sketch=0;aspect=fixed;pointerEvents=1;shadow=0;dashed=0;html=1;strokeColor=#006EAF;labelPosition=center;verticalLabelPosition=bottom;verticalAlign=top;align=center;fillColor=#1ba1e2;shape=mxgraph.azure.laptop;fontColor=#ffffff;" parent="Hr1K1v3xX_q02tlTiwX0-30" vertex="1">
          <mxGeometry x="193.75" y="70" width="111.67" height="67" as="geometry" />
        </mxCell>
        <mxCell id="Hr1K1v3xX_q02tlTiwX0-16" value="" style="image;aspect=fixed;perimeter=ellipsePerimeter;html=1;align=center;shadow=0;dashed=0;fontColor=#4277BB;labelBackgroundColor=default;fontSize=12;spacingTop=3;image=img/lib/ibm/blockchain/event_listener.svg;" parent="Hr1K1v3xX_q02tlTiwX0-30" vertex="1">
          <mxGeometry x="10" width="50" height="50" as="geometry" />
        </mxCell>
        <mxCell id="Hr1K1v3xX_q02tlTiwX0-22" value="&lt;span style=&quot;font-size: 16px;&quot;&gt;SQS Listener App&lt;br&gt;&lt;/span&gt;" style="text;html=1;strokeColor=none;fillColor=none;align=center;verticalAlign=middle;whiteSpace=wrap;rounded=0;" parent="Hr1K1v3xX_q02tlTiwX0-30" vertex="1">
          <mxGeometry y="147" width="70" height="30" as="geometry" />
        </mxCell>
        <mxCell id="Hr1K1v3xX_q02tlTiwX0-25" value="&lt;span style=&quot;font-size: 16px;&quot;&gt;&lt;font face=&quot;Courier New&quot;&gt;UserRegisteredListener&lt;/font&gt;&lt;br&gt;&lt;/span&gt;" style="text;html=1;strokeColor=none;fillColor=none;align=center;verticalAlign=middle;whiteSpace=wrap;rounded=0;" parent="Hr1K1v3xX_q02tlTiwX0-30" vertex="1">
          <mxGeometry y="50" width="70" height="30" as="geometry" />
        </mxCell>
        <mxCell id="KpPitgTN25XkhAGC1yuc-4" value="" style="rounded=0;whiteSpace=wrap;html=1;fillColor=none;dashed=1;" vertex="1" parent="Hr1K1v3xX_q02tlTiwX0-30">
          <mxGeometry x="-85.40999999999997" y="-45" width="430" height="280" as="geometry" />
        </mxCell>
        <mxCell id="KpPitgTN25XkhAGC1yuc-5" value="&lt;span style=&quot;font-size: 16px;&quot;&gt;&lt;font face=&quot;Courier New&quot;&gt;localhost&lt;/font&gt;&lt;br&gt;&lt;/span&gt;" style="text;html=1;strokeColor=none;fillColor=none;align=center;verticalAlign=middle;whiteSpace=wrap;rounded=0;" vertex="1" parent="1">
          <mxGeometry x="1100" y="333" width="90" height="30" as="geometry" />
        </mxCell>
        <mxCell id="KpPitgTN25XkhAGC1yuc-7" value="&lt;font style=&quot;font-size: 30px;&quot;&gt;A basic SQS Listener microservice&lt;/font&gt;" style="text;html=1;strokeColor=none;fillColor=none;align=center;verticalAlign=middle;whiteSpace=wrap;rounded=0;" vertex="1" parent="1">
          <mxGeometry x="387.5" y="570" width="475" height="30" as="geometry" />
        </mxCell>
      </root>
    </mxGraphModel>
  </diagram>
</mxfile>
